<?xml version="1.0" encoding="UTF-8"?> <svg xmlns="http://www.w3.org/2000/svg" width="608" height="395" viewBox="0 0 608 395" fill="none"> <path d="M96.2215 388.991L530.044 388.63C552.114 363.896 599.939 302.912 606.733 214.444C608.465 191.888 617.496 74.2604 543.997 23.6705C507.916 -1.16554 465.618 -0.434868 428.236 0.211868C362.01 1.35673 358.011 23.1531 293.379 27.3018C215.235 32.3189 195.988 2.06263 137.648 18.7402C92.0405 31.7822 63.6485 61.7536 54.838 71.284C-4.65219 135.637 -16.4426 240.564 26.6083 317.203C47.5931 354.558 76.9661 376.933 96.2215 388.991Z" fill="#BFE2FF"></path> <path d="M457.642 33.9082C457.385 32.3345 456.964 30.7922 456.384 29.3067L459.732 28.0078C459.063 26.2884 458.215 24.6442 457.203 23.1022L454.198 25.0768C453.323 23.7476 452.311 22.5135 451.18 21.3945L453.71 18.8351C452.399 17.5399 450.957 16.3843 449.408 15.3868L447.462 18.414C446.123 17.5534 444.697 16.8344 443.208 16.2688L444.485 12.9044C442.761 12.2496 440.973 11.7782 439.15 11.4981L438.6 15.0496C437.026 14.8047 435.431 14.7267 433.841 14.8171L433.633 11.2394C431.795 11.3476 429.973 11.6441 428.196 12.1242L429.136 15.5863C427.599 16.0049 426.112 16.5847 424.697 17.316L423.046 14.1208C421.407 14.9647 419.861 15.9794 418.435 17.1481L420.727 19.9291C419.494 20.9373 418.369 22.0713 417.371 23.3127L414.567 21.0629C413.414 22.4999 412.414 24.0531 411.583 25.6974L414.794 27.3211C414.075 28.742 413.507 30.2344 413.099 31.774L409.623 30.8548C409.152 32.6385 408.871 34.4667 408.782 36.3094L412.366 36.48C412.29 38.0627 412.378 39.6491 412.63 41.2136C412.63 41.2232 412.63 41.2314 412.63 41.2397L409.093 41.8135C409.391 43.6329 409.878 45.4163 410.546 47.1346L413.893 45.8384C414.47 47.3222 415.201 48.7409 416.075 50.0711L413.068 52.0429C414.079 53.5823 415.249 55.012 416.557 56.3086L419.09 53.7533C420.222 54.874 421.466 55.8747 422.804 56.7393L420.856 59.7666C422.405 60.7661 424.054 61.6009 425.776 62.2572L427.057 58.8942C428.544 59.4623 430.086 59.8728 431.659 60.1189L431.108 63.6704C432.931 63.951 434.779 64.0396 436.62 63.9346L436.415 60.3569C437.206 60.3128 437.994 60.2274 438.776 60.101C439.563 59.9726 440.344 59.8036 441.114 59.5946L442.05 63.0567C443.83 62.5754 445.555 61.9085 447.195 61.067L445.554 57.8704C446.969 57.1407 448.304 56.2645 449.536 55.256L451.819 58.0411C453.247 56.8752 454.548 55.5636 455.703 54.1276L452.901 51.8737C453.898 50.6322 454.764 49.2902 455.483 47.8694L458.693 49.4959C459.526 47.8508 460.185 46.1232 460.659 44.3413L457.182 43.4193C457.594 41.8812 457.841 40.3036 457.92 38.7133L461.505 38.8867C461.593 37.0494 461.49 35.208 461.197 33.3922L461.186 33.3206L457.642 33.9082ZM437.035 49.3349C434.712 49.7096 432.329 49.3866 430.189 48.407C428.049 47.4273 426.247 45.8349 425.012 43.8311C423.776 41.8273 423.163 39.5022 423.249 37.1497C423.335 34.7971 424.116 32.5229 425.494 30.6145C426.872 28.7062 428.785 27.2494 430.991 26.4285C433.197 25.6075 435.597 25.4592 437.887 26.0024C440.177 26.5455 442.255 27.7557 443.857 29.4798C445.46 31.204 446.515 33.3647 446.89 35.6888C447.389 38.805 446.632 41.9919 444.784 44.5503C442.937 47.1087 440.15 48.8294 437.035 49.3349Z" fill="#303233"></path> <path d="M76.594 304.849C76.3809 303.542 76.0309 302.261 75.5498 301.027L78.3303 299.946C77.7762 298.516 77.0725 297.148 76.2308 295.865L73.7338 297.507C73.0065 296.402 72.1659 295.376 71.2257 294.446L73.3266 292.327C72.2367 291.251 71.0379 290.29 69.7495 289.461L68.133 291.975C67.0198 291.257 65.8348 290.658 64.5972 290.186L65.658 287.391C64.2253 286.848 62.7396 286.456 61.2252 286.222L60.7712 289.173C59.4636 288.97 58.1383 288.906 56.8172 288.981L56.6452 286.007C55.1179 286.097 53.6039 286.343 52.1271 286.743L52.9072 289.619C51.6306 289.968 50.3943 290.45 49.2187 291.057L47.8526 288.401C46.4902 289.103 45.2055 289.946 44.0197 290.917L45.9127 293.231C44.8898 294.069 43.957 295.011 43.1295 296.043L40.799 294.173C39.8426 295.368 39.0127 296.659 38.3225 298.025L40.9916 299.374C40.3942 300.555 39.922 301.795 39.5828 303.074L36.6936 302.31C36.3028 303.793 36.069 305.313 35.9961 306.844L38.9747 306.982C38.9105 308.297 38.9838 309.616 39.1934 310.916V310.937L36.2534 311.414C36.4988 312.926 36.9003 314.408 37.4517 315.837L40.2335 314.759C40.713 315.992 41.3212 317.171 42.0482 318.277L39.5484 319.915C40.3888 321.196 41.3608 322.386 42.4485 323.464L44.5521 321.34C45.4925 322.269 46.5266 323.1 47.638 323.816L46.0187 326.328C47.3062 327.156 48.6765 327.848 50.1075 328.392L51.1723 325.597C52.4076 326.069 53.6891 326.41 54.9956 326.614L54.5403 329.566C56.0551 329.798 57.5901 329.872 59.1202 329.786L58.9496 326.811C60.272 326.737 61.583 326.525 62.861 326.178L63.6383 329.054C65.1177 328.655 66.5509 328.101 67.9142 327.402L66.5508 324.745C67.727 324.14 68.836 323.412 69.8596 322.574L71.7499 324.891C72.9361 323.922 74.0178 322.832 74.9775 321.638L72.6538 319.776C73.4829 318.744 74.2022 317.629 74.8 316.448L77.4677 317.8C78.1578 316.434 78.7033 314.998 79.0952 313.518L76.2061 312.752C76.5468 311.473 76.752 310.163 76.8183 308.841L79.7969 308.986C79.8706 307.459 79.7848 305.929 79.541 304.42L79.5313 304.359L76.594 304.849ZM59.4697 317.671C57.5384 317.983 55.5582 317.714 53.7794 316.9C52.0006 316.086 50.5032 314.762 49.4765 313.097C48.4498 311.432 47.9399 309.499 48.0113 307.544C48.0827 305.589 48.7322 303.698 49.8777 302.112C51.0232 300.526 52.6132 299.316 54.4466 298.633C56.2801 297.951 58.2746 297.828 60.178 298.28C62.0813 298.731 63.8081 299.737 65.1398 301.17C66.4716 302.604 67.3485 304.4 67.6597 306.331C68.0717 308.92 67.441 311.567 65.906 313.691C64.3709 315.816 62.0565 317.246 59.4697 317.667V317.671Z" fill="#303233"></path> <path d="M110.803 284.401C110.696 283.748 110.521 283.108 110.281 282.491L111.67 281.952C111.392 281.239 111.04 280.557 110.62 279.917L109.373 280.742C109.01 280.191 108.59 279.678 108.12 279.214L109.17 278.153C108.625 277.615 108.026 277.135 107.381 276.722L106.574 277.977C106.018 277.619 105.426 277.321 104.809 277.086L105.338 275.69C104.622 275.418 103.88 275.223 103.123 275.106L102.898 276.58C102.245 276.478 101.583 276.447 100.923 276.485L100.837 274.999C100.074 275.044 99.318 275.167 98.5805 275.366L98.9698 276.803C98.3322 276.977 97.7147 277.218 97.1276 277.521L96.4397 276.195C95.7596 276.545 95.1182 276.966 94.526 277.451L95.4712 278.607C94.9597 279.025 94.4936 279.496 94.0803 280.012L92.9164 279.077C92.438 279.675 92.023 280.321 91.6782 281.004L93.0099 281.678C92.7124 282.268 92.4768 282.887 92.3069 283.525L90.8637 283.144C90.6682 283.884 90.5515 284.643 90.5156 285.409L92.0028 285.479C91.9707 286.136 92.0076 286.794 92.1129 287.444C92.1129 287.444 92.1129 287.444 92.1129 287.453L90.6449 287.693C90.7679 288.445 90.9684 289.183 91.2434 289.894L92.6329 289.356C92.8714 289.973 93.1749 290.562 93.5382 291.114L92.2904 291.932C92.7141 292.572 93.2033 293.165 93.7501 293.703L94.8012 292.642C95.2702 293.108 95.7866 293.523 96.3421 293.881L95.5331 295.136C96.1758 295.55 96.8601 295.897 97.5748 296.169L98.1058 294.774C98.7231 295.01 99.3636 295.18 100.017 295.282L99.7884 296.755C100.545 296.872 101.311 296.909 102.075 296.865L101.991 295.379C102.319 295.362 102.646 295.326 102.971 295.273C103.299 295.22 103.624 295.15 103.945 295.063L104.333 296.501C105.071 296.301 105.787 296.024 106.468 295.675L105.78 294.347C106.367 294.045 106.92 293.682 107.431 293.263L108.375 294.42C108.967 293.936 109.507 293.392 109.987 292.797L108.825 291.861C109.238 291.345 109.597 290.788 109.895 290.199L111.228 290.874C111.573 290.191 111.847 289.474 112.044 288.734L110.601 288.352C110.771 287.713 110.874 287.058 110.907 286.398L112.395 286.471C112.431 285.708 112.388 284.944 112.267 284.191V284.161L110.803 284.401ZM102.251 290.804C101.287 290.96 100.298 290.826 99.4094 290.42C98.5211 290.013 97.7732 289.352 97.2603 288.521C96.7474 287.689 96.4926 286.724 96.5281 285.748C96.5636 284.771 96.8877 283.827 97.4596 283.035C98.0314 282.243 98.8253 281.638 99.7408 281.298C100.656 280.957 101.652 280.895 102.603 281.12C103.553 281.346 104.416 281.848 105.081 282.563C105.746 283.279 106.184 284.176 106.34 285.14C106.547 286.433 106.233 287.756 105.466 288.818C104.7 289.88 103.543 290.594 102.251 290.804Z" fill="#303233"></path> <path d="M570.097 260.662C569.819 258.962 569.364 257.297 568.739 255.692L572.353 254.287C571.631 252.429 570.716 250.653 569.622 248.988L566.375 251.122C565.43 249.685 564.337 248.352 563.114 247.142L565.848 244.379C564.432 242.98 562.875 241.732 561.201 240.655L559.1 243.923C557.652 242.992 556.112 242.215 554.503 241.604L555.879 237.97C554.016 237.264 552.084 236.757 550.115 236.456L549.527 240.293C547.827 240.029 546.104 239.945 544.386 240.042L544.162 236.177C542.176 236.294 540.208 236.614 538.288 237.133L539.302 240.872C537.644 241.325 536.037 241.951 534.509 242.741L532.732 239.289C530.961 240.201 529.291 241.297 527.75 242.559L530.211 245.568C528.879 246.657 527.665 247.882 526.587 249.223L523.561 246.792C522.315 248.345 521.235 250.023 520.336 251.799L523.806 253.553C523.028 255.09 522.414 256.704 521.974 258.37L518.219 257.377C517.71 259.305 517.406 261.28 517.311 263.271L521.183 263.454C521.1 265.164 521.196 266.878 521.468 268.569V268.595L517.648 269.215C517.966 271.181 518.488 273.107 519.205 274.965L522.822 273.564C523.445 275.167 524.235 276.7 525.18 278.136L521.93 280.266C523.023 281.931 524.286 283.477 525.7 284.879L528.436 282.119C529.658 283.33 531.002 284.411 532.447 285.344L530.342 288.609C532.015 289.689 533.796 290.59 535.657 291.299L537.041 287.667C538.647 288.28 540.314 288.724 542.013 288.989L541.42 292.825C543.389 293.13 545.384 293.226 547.373 293.112L547.153 289.245C548.874 289.148 550.58 288.871 552.243 288.419L553.253 292.158C555.176 291.639 557.039 290.919 558.811 290.01L557.039 286.556C558.567 285.768 560.009 284.822 561.34 283.733L563.798 286.745C565.339 285.485 566.745 284.068 567.993 282.516L564.966 280.082C566.043 278.74 566.978 277.29 567.755 275.754L571.222 277.513C572.122 275.736 572.834 273.87 573.346 271.944L569.592 270.948C570.035 269.286 570.302 267.582 570.388 265.863L574.264 266.045C574.359 264.06 574.248 262.071 573.932 260.109L573.92 260.032L570.097 260.662ZM547.835 277.329C545.325 277.733 542.751 277.385 540.438 276.326C538.126 275.268 536.18 273.548 534.845 271.383C533.51 269.218 532.847 266.706 532.94 264.165C533.033 261.623 533.877 259.166 535.366 257.105C536.854 255.043 538.921 253.469 541.304 252.582C543.687 251.695 546.28 251.535 548.754 252.121C551.228 252.708 553.473 254.015 555.204 255.878C556.936 257.741 558.076 260.075 558.481 262.586C559.019 265.952 558.201 269.395 556.205 272.158C554.21 274.922 551.199 276.782 547.835 277.329Z" fill="#303233"></path> <path d="M210.8 127.301H101.546C100.019 127.299 98.5556 126.692 97.476 125.613C96.3963 124.533 95.7889 123.069 95.7871 121.542V50.3476C95.7889 48.8206 96.3963 47.3568 97.476 46.2771C98.5556 45.1975 100.019 44.5904 101.546 44.5889H210.796C212.323 44.5886 213.789 45.1949 214.87 46.2747C215.951 47.3545 216.56 48.8195 216.561 50.3476V121.542C216.56 123.07 215.952 124.534 214.872 125.614C213.791 126.693 212.327 127.3 210.8 127.301ZM97.9485 58.8804V121.542C97.951 122.496 98.3309 123.409 99.0051 124.083C99.6793 124.757 100.593 125.137 101.546 125.139H210.796C211.751 125.138 212.666 124.758 213.341 124.083C214.016 123.407 214.396 122.492 214.397 121.537V58.8804H97.9485ZM97.9485 56.7228H214.402V50.3476C214.4 49.3925 214.021 48.4769 213.345 47.8015C212.67 47.1262 211.755 46.7463 210.8 46.7452H101.546C100.591 46.7463 99.6757 47.1262 99.0005 47.8015C98.3252 48.4769 97.9454 49.3925 97.9443 50.3476L97.9485 56.7228ZM141.913 101.511H138.347V99.3537H141.913V101.511ZM135.213 101.511H131.647V99.3537H135.213V101.511ZM118.201 101.511H107.833V99.3537H118.201V101.511ZM155.958 93.7876H137.776V91.6314H155.958V93.7876ZM118.201 93.7876H107.833V91.6314H118.201V93.7876ZM148.409 86.0598H144.23V83.9077H148.409V86.0598ZM142.279 86.0598H131.647V83.9077H142.279V86.0598ZM118.203 86.0598H107.833V83.9077H118.201L118.203 86.0598ZM177.177 78.3362H166.81V76.184H177.177V78.3362ZM163.716 78.3362H159.538V76.184H163.716V78.3362ZM153.82 78.3362H126.448V76.184H153.826L153.82 78.3362ZM118.203 78.3362H107.833V76.184H118.201L118.203 78.3362Z" fill="#6E7173"></path> <path d="M272.501 0.270874H170.946C168.53 0.270874 166.571 2.22998 166.571 4.64666V64.6651C166.571 67.0818 168.53 69.0409 170.946 69.0409H272.501C274.917 69.0409 276.876 67.0818 276.876 64.6651V4.64666C276.876 2.22998 274.917 0.270874 272.501 0.270874Z" fill="#303233"></path> <g opacity="0.48"> <path d="M178.951 10.5801H178.051C177.456 10.5801 176.973 11.0631 176.973 11.6589C176.973 12.2548 177.456 12.7378 178.051 12.7378H178.951C179.547 12.7378 180.03 12.2548 180.03 11.6589C180.03 11.0631 179.547 10.5801 178.951 10.5801Z" fill="white"></path> <path d="M202.076 10.5801H189.082C188.486 10.5801 188.003 11.0631 188.003 11.6589C188.003 12.2548 188.486 12.7378 189.082 12.7378H202.076C202.671 12.7378 203.154 12.2548 203.154 11.6589C203.154 11.0631 202.671 10.5801 202.076 10.5801Z" fill="white"></path> <path d="M178.951 17.7534H178.051C177.456 17.7534 176.973 18.2364 176.973 18.8322C176.973 19.428 177.456 19.911 178.051 19.911H178.951C179.547 19.911 180.03 19.428 180.03 18.8322C180.03 18.2364 179.547 17.7534 178.951 17.7534Z" fill="white"></path> <path d="M226.532 17.7534H194.8C194.204 17.7534 193.721 18.2364 193.721 18.8322C193.721 19.428 194.204 19.911 194.8 19.911H226.532C227.127 19.911 227.61 19.428 227.61 18.8322C227.61 18.2364 227.127 17.7534 226.532 17.7534Z" fill="white"></path> <path d="M236.036 17.7534H232.215C231.619 17.7534 231.136 18.2364 231.136 18.8322C231.136 19.428 231.619 19.911 232.215 19.911H236.036C236.632 19.911 237.115 19.428 237.115 18.8322C237.115 18.2364 236.632 17.7534 236.036 17.7534Z" fill="white"></path> <path d="M250.655 17.7534H246.834C246.238 17.7534 245.755 18.2364 245.755 18.8322C245.755 19.428 246.238 19.911 246.834 19.911H250.655C251.251 19.911 251.734 19.428 251.734 18.8322C251.734 18.2364 251.251 17.7534 250.655 17.7534Z" fill="white"></path> <path d="M266.181 17.7534H255.329C254.733 17.7534 254.25 18.2364 254.25 18.8322C254.25 19.428 254.733 19.911 255.329 19.911H266.181C266.776 19.911 267.259 19.428 267.259 18.8322C267.259 18.2364 266.776 17.7534 266.181 17.7534Z" fill="white"></path> <path d="M242.451 19.1702V18.4942C242.451 18.0851 242.12 17.7534 241.711 17.7534C241.301 17.7534 240.97 18.0851 240.97 18.4942V19.1702C240.97 19.5793 241.301 19.911 241.711 19.911C242.12 19.911 242.451 19.5793 242.451 19.1702Z" fill="white"></path> <path d="M178.951 24.9253H178.051C177.456 24.9253 176.973 25.4083 176.973 26.0041C176.973 26.5999 177.456 27.0829 178.051 27.0829H178.951C179.547 27.0829 180.03 26.5999 180.03 26.0041C180.03 25.4083 179.547 24.9253 178.951 24.9253Z" fill="white"></path> <path d="M207.793 24.9253H194.8C194.204 24.9253 193.721 25.4083 193.721 26.0041C193.721 26.5999 194.204 27.0829 194.8 27.0829H207.793C208.389 27.0829 208.872 26.5999 208.872 26.0041C208.872 25.4083 208.389 24.9253 207.793 24.9253Z" fill="white"></path> <path d="M217.849 24.9253H213.451C212.855 24.9253 212.372 25.4083 212.372 26.0041C212.372 26.5999 212.855 27.0829 213.451 27.0829H217.849C218.445 27.0829 218.928 26.5999 218.928 26.0041C218.928 25.4083 218.445 24.9253 217.849 24.9253Z" fill="white"></path> <path d="M236.035 24.9253H223.374C222.778 24.9253 222.295 25.4083 222.295 26.0041C222.295 26.5999 222.778 27.0829 223.374 27.0829H236.035C236.63 27.0829 237.113 26.5999 237.113 26.0041C237.113 25.4083 236.63 24.9253 236.035 24.9253Z" fill="white"></path> <path d="M178.951 32.0985H178.051C177.456 32.0985 176.973 32.5815 176.973 33.1774C176.973 33.7732 177.456 34.2562 178.051 34.2562H178.951C179.547 34.2562 180.03 33.7732 180.03 33.1774C180.03 32.5815 179.547 32.0985 178.951 32.0985Z" fill="white"></path> <path d="M178.951 32.0985H178.051C177.456 32.0985 176.973 32.5815 176.973 33.1774C176.973 33.7732 177.456 34.2562 178.051 34.2562H178.951C179.547 34.2562 180.03 33.7732 180.03 33.1774C180.03 32.5815 179.547 32.0985 178.951 32.0985Z" fill="white"></path> <path d="M222.235 32.0985H213.451C212.855 32.0985 212.372 32.5815 212.372 33.1774C212.372 33.7732 212.855 34.2562 213.451 34.2562H222.235C222.831 34.2562 223.314 33.7732 223.314 33.1774C223.314 32.5815 222.831 32.0985 222.235 32.0985Z" fill="white"></path> <path d="M178.951 39.2704H178.051C177.456 39.2704 176.973 39.7534 176.973 40.3493C176.973 40.9451 177.456 41.4281 178.051 41.4281H178.951C179.547 41.4281 180.03 40.9451 180.03 40.3493C180.03 39.7534 179.547 39.2704 178.951 39.2704Z" fill="white"></path> <path d="M194.499 39.2704H189.082C188.486 39.2704 188.003 39.7534 188.003 40.3493C188.003 40.9451 188.486 41.4281 189.082 41.4281H194.499C195.095 41.4281 195.578 40.9451 195.578 40.3493C195.578 39.7534 195.095 39.2704 194.499 39.2704Z" fill="white"></path> <path d="M208.234 39.2704H200.446C199.85 39.2704 199.367 39.7534 199.367 40.3493C199.367 40.9451 199.85 41.4281 200.446 41.4281H208.234C208.83 41.4281 209.313 40.9451 209.313 40.3493C209.313 39.7534 208.83 39.2704 208.234 39.2704Z" fill="white"></path> <path d="M213.135 39.2704H212.934C212.338 39.2704 211.855 39.7534 211.855 40.3493C211.855 40.9451 212.338 41.4281 212.934 41.4281H213.135C213.731 41.4281 214.214 40.9451 214.214 40.3493C214.214 39.7534 213.731 39.2704 213.135 39.2704Z" fill="white"></path> <path d="M243.057 39.2704H218.402C217.806 39.2704 217.323 39.7534 217.323 40.3493C217.323 40.9451 217.806 41.4281 218.402 41.4281H243.057C243.653 41.4281 244.136 40.9451 244.136 40.3493C244.136 39.7534 243.653 39.2704 243.057 39.2704Z" fill="white"></path> <path d="M178.951 46.4437H178.051C177.456 46.4437 176.973 46.9267 176.973 47.5225C176.973 48.1183 177.456 48.6013 178.051 48.6013H178.951C179.547 48.6013 180.03 48.1183 180.03 47.5225C180.03 46.9267 179.547 46.4437 178.951 46.4437Z" fill="white"></path> <path d="M217.856 46.4437H200.446C199.85 46.4437 199.367 46.9267 199.367 47.5225C199.367 48.1183 199.85 48.6013 200.446 48.6013H217.856C218.452 48.6013 218.935 48.1183 218.935 47.5225C218.935 46.9267 218.452 46.4437 217.856 46.4437Z" fill="white"></path> <path d="M229.123 46.4437H222.296C221.7 46.4437 221.217 46.9267 221.217 47.5225C221.217 48.1183 221.7 48.6013 222.296 48.6013H229.123C229.719 48.6013 230.202 48.1183 230.202 47.5225C230.202 46.9267 229.719 46.4437 229.123 46.4437Z" fill="white"></path> <path d="M243.056 46.4437H237.556C236.961 46.4437 236.478 46.9267 236.478 47.5225C236.478 48.1183 236.961 48.6013 237.556 48.6013H243.056C243.652 48.6013 244.135 48.1183 244.135 47.5225C244.135 46.9267 243.652 46.4437 243.056 46.4437Z" fill="white"></path> <path d="M178.951 53.6169H178.051C177.456 53.6169 176.973 54.0999 176.973 54.6958C176.973 55.2916 177.456 55.7746 178.051 55.7746H178.951C179.547 55.7746 180.03 55.2916 180.03 54.6958C180.03 54.0999 179.547 53.6169 178.951 53.6169Z" fill="white"></path> <path d="M219.005 53.6169H211.345C210.75 53.6169 210.267 54.0999 210.267 54.6958C210.267 55.2916 210.75 55.7746 211.345 55.7746H219.005C219.601 55.7746 220.084 55.2916 220.084 54.6958C220.084 54.0999 219.601 53.6169 219.005 53.6169Z" fill="white"></path> <path d="M226.531 53.6169H224.392C223.796 53.6169 223.313 54.0999 223.313 54.6958C223.313 55.2916 223.796 55.7746 224.392 55.7746H226.531C227.127 55.7746 227.61 55.2916 227.61 54.6958C227.61 54.0999 227.127 53.6169 226.531 53.6169Z" fill="white"></path> <path d="M178.951 60.7889H178.051C177.456 60.7889 176.973 61.2719 176.973 61.8677C176.973 62.4635 177.456 62.9465 178.051 62.9465H178.951C179.547 62.9465 180.03 62.4635 180.03 61.8677C180.03 61.2719 179.547 60.7889 178.951 60.7889Z" fill="white"></path> <path d="M178.951 60.7889H178.051C177.456 60.7889 176.973 61.2719 176.973 61.8677C176.973 62.4635 177.456 62.9465 178.051 62.9465H178.951C179.547 62.9465 180.03 62.4635 180.03 61.8677C180.03 61.2719 179.547 60.7889 178.951 60.7889Z" fill="white"></path> </g> <path d="M219.239 124.78C219.239 120.435 215.919 116.911 211.822 116.911H37.037C32.9413 116.911 29.6201 120.435 29.6201 124.78V137.44H219.239V124.78Z" fill="#6E7173"></path> <path d="M85.8621 137.44H29.6201V257.443C29.6201 260.952 31.0135 264.316 33.4937 266.797C35.974 269.278 39.3379 270.671 42.8455 270.671H206.013C207.75 270.671 209.47 270.329 211.074 269.664C212.679 269 214.137 268.025 215.365 266.797C216.592 265.569 217.567 264.11 218.231 262.505C218.896 260.901 219.237 259.18 219.237 257.443V137.44H85.8621Z" fill="#303233"></path> <path d="M147.004 153.454H203.156C203.185 153.454 203.213 153.465 203.233 153.486C203.254 153.506 203.265 153.534 203.265 153.563V187.589C203.265 187.618 203.253 187.645 203.233 187.665C203.212 187.685 203.185 187.696 203.156 187.696H147.004C146.975 187.696 146.948 187.685 146.928 187.665C146.908 187.645 146.896 187.618 146.896 187.589V153.563C146.896 153.548 146.899 153.534 146.904 153.521C146.91 153.508 146.917 153.496 146.927 153.486C146.937 153.476 146.949 153.468 146.962 153.462C146.975 153.457 146.99 153.454 147.004 153.454ZM110.683 245.389H138.651C138.665 245.389 138.679 245.387 138.692 245.381C138.705 245.376 138.717 245.368 138.727 245.358C138.737 245.348 138.745 245.336 138.751 245.323C138.756 245.31 138.759 245.296 138.759 245.282V153.563C138.759 153.548 138.756 153.534 138.751 153.521C138.746 153.508 138.738 153.496 138.728 153.486C138.718 153.476 138.706 153.468 138.693 153.462C138.68 153.457 138.666 153.454 138.651 153.454H110.679C110.65 153.454 110.623 153.465 110.602 153.486C110.582 153.506 110.57 153.534 110.57 153.563V245.282C110.57 245.296 110.573 245.31 110.579 245.323C110.584 245.337 110.592 245.348 110.602 245.358C110.612 245.368 110.624 245.376 110.638 245.382C110.651 245.387 110.665 245.39 110.679 245.389H110.683ZM147.004 245.389H203.156C203.185 245.389 203.212 245.378 203.233 245.358C203.253 245.338 203.265 245.311 203.265 245.282V195.526C203.265 195.497 203.253 195.47 203.233 195.45C203.212 195.43 203.185 195.419 203.156 195.419H147.004C146.975 195.419 146.948 195.43 146.928 195.45C146.908 195.47 146.896 195.498 146.896 195.526V245.282C146.896 245.311 146.908 245.338 146.928 245.358C146.948 245.378 146.975 245.389 147.004 245.389Z" fill="#6E7173"></path> <path d="M43.7665 245.389H101.558C101.699 245.389 101.813 245.275 101.813 245.133L101.813 153.432C101.813 153.29 101.699 153.176 101.558 153.176H43.7665C43.6251 153.176 43.5106 153.29 43.5106 153.432L43.5106 245.133C43.5106 245.275 43.6251 245.389 43.7665 245.389Z" fill="#6E7173"></path> <path d="M53.2681 163.449C53.2681 163.987 52.8323 164.422 52.2947 164.422V164.422C51.7571 164.422 51.3213 163.987 51.3213 163.449V162.439C51.3213 161.901 51.7571 161.465 52.2947 161.465V161.465C52.8323 161.465 53.2681 161.901 53.2681 162.439V163.449ZM53.2681 168.307C53.2681 167.77 52.8323 167.334 52.2947 167.334V167.334C51.7571 167.334 51.3213 167.77 51.3213 168.307V169.318C51.3213 169.856 51.7571 170.291 52.2947 170.291V170.291C52.8323 170.291 53.2681 169.856 53.2681 169.318V168.307ZM53.2681 174.173C53.2681 173.636 52.8323 173.2 52.2947 173.2V173.2C51.7571 173.2 51.3213 173.636 51.3213 174.173V175.184C51.3213 175.722 51.7571 176.158 52.2947 176.158V176.158C52.8323 176.158 53.2681 175.722 53.2681 175.184V174.173ZM53.2681 180.04C53.2681 179.502 52.8323 179.066 52.2947 179.066V179.066C51.7571 179.066 51.3213 179.502 51.3213 180.04V181.05C51.3213 181.588 51.7571 182.024 52.2947 182.024V182.024C52.8323 182.024 53.2681 181.588 53.2681 181.05V180.04ZM53.2681 185.906C53.2681 185.368 52.8323 184.933 52.2947 184.933V184.933C51.7571 184.933 51.3213 185.368 51.3213 185.906V186.917C51.3213 187.454 51.7571 187.89 52.2947 187.89V187.89C52.8323 187.89 53.2681 187.454 53.2681 186.917V185.906ZM53.2681 191.772C53.2681 191.235 52.8323 190.799 52.2947 190.799V190.799C51.7571 190.799 51.3213 191.235 51.3213 191.772V192.783C51.3213 193.321 51.7571 193.756 52.2947 193.756V193.756C52.8323 193.756 53.2681 193.321 53.2681 192.783V191.772ZM53.2681 197.638C53.2681 197.101 52.8323 196.665 52.2947 196.665V196.665C51.7571 196.665 51.3213 197.101 51.3213 197.638V198.649C51.3213 199.187 51.7571 199.623 52.2947 199.623V199.623C52.8323 199.623 53.2681 199.187 53.2681 198.649V197.638Z" fill="white"></path> <path d="M53.2681 203.553C53.2681 204.09 52.8323 204.526 52.2947 204.526V204.526C51.7571 204.526 51.3213 204.09 51.3213 203.553V202.543C51.3213 202.005 51.7571 201.569 52.2947 201.569V201.569C52.8323 201.569 53.2681 202.005 53.2681 202.543V203.553ZM53.2681 208.411C53.2681 207.874 52.8323 207.438 52.2947 207.438V207.438C51.7571 207.438 51.3213 207.874 51.3213 208.411V209.422C51.3213 209.96 51.7571 210.395 52.2947 210.395V210.395C52.8323 210.395 53.2681 209.96 53.2681 209.422V208.411ZM53.2681 214.277C53.2681 213.74 52.8323 213.304 52.2947 213.304V213.304C51.7571 213.304 51.3213 213.74 51.3213 214.277V215.288C51.3213 215.826 51.7571 216.262 52.2947 216.262V216.262C52.8323 216.262 53.2681 215.826 53.2681 215.288V214.277ZM53.2681 220.144C53.2681 219.606 52.8323 219.17 52.2947 219.17V219.17C51.7571 219.17 51.3213 219.606 51.3213 220.144V221.154C51.3213 221.692 51.7571 222.128 52.2947 222.128V222.128C52.8323 222.128 53.2681 221.692 53.2681 221.154V220.144ZM53.2681 226.01C53.2681 225.472 52.8323 225.037 52.2947 225.037V225.037C51.7571 225.037 51.3213 225.472 51.3213 226.01V227.021C51.3213 227.558 51.7571 227.994 52.2947 227.994V227.994C52.8323 227.994 53.2681 227.558 53.2681 227.021V226.01ZM53.2681 231.876C53.2681 231.339 52.8323 230.903 52.2947 230.903V230.903C51.7571 230.903 51.3213 231.339 51.3213 231.876V232.887C51.3213 233.425 51.7571 233.86 52.2947 233.86V233.86C52.8323 233.86 53.2681 233.425 53.2681 232.887V231.876ZM53.2681 237.742C53.2681 237.205 52.8323 236.769 52.2947 236.769V236.769C51.7571 236.769 51.3213 237.205 51.3213 237.742V238.753C51.3213 239.291 51.7571 239.727 52.2947 239.727V239.727C52.8323 239.727 53.2681 239.291 53.2681 238.753V237.742Z" fill="white"></path> <path d="M72.6404 164.441C72.6404 165.224 72.0057 165.858 71.2227 165.858H59.3581C58.5751 165.858 57.9404 165.224 57.9404 164.441V164.441C57.9404 163.658 58.5751 163.023 59.3581 163.023H71.2227C72.0057 163.023 72.6404 163.658 72.6404 164.441V164.441ZM82.0365 164.441C82.0365 165.224 81.4017 165.858 80.6188 165.858H77.6498C76.8668 165.858 76.2321 165.224 76.2321 164.441V164.441C76.2321 163.658 76.8668 163.023 77.6498 163.023H80.6188C81.4017 163.023 82.0365 163.658 82.0365 164.441V164.441ZM96.0921 164.441C96.0921 165.224 95.4574 165.858 94.6744 165.858H86.2082C85.4253 165.858 84.7906 165.224 84.7906 164.441V164.441C84.7906 163.658 85.4253 163.023 86.2082 163.023H94.6744C95.4574 163.023 96.0921 163.658 96.0921 164.441V164.441ZM78.6805 170.069C78.6813 169.286 78.0462 168.65 77.2625 168.65H66.2718C65.4887 168.65 64.8538 169.285 64.8538 170.068V170.068C64.8538 170.851 65.4887 171.486 66.2718 171.486H77.2625C78.0451 171.486 78.6798 170.852 78.6805 170.069V170.069ZM76.2335 175.695C76.2343 174.911 75.5992 174.275 74.8155 174.275H72.3818C71.5987 174.275 70.9638 174.91 70.9638 175.693V175.693C70.9638 176.476 71.5987 177.111 72.3818 177.111H74.8155C75.5981 177.111 76.2327 176.477 76.2335 175.695V175.695ZM71.7672 181.32C71.7679 180.536 71.1328 179.9 70.3492 179.9H59.3584C58.5753 179.9 57.9404 180.535 57.9404 181.318V181.318C57.9404 182.102 58.5753 182.736 59.3584 182.736H70.3491C71.1318 182.736 71.7664 182.102 71.7672 181.32V181.32ZM85.5624 186.945C85.5631 186.161 84.928 185.526 84.1444 185.526H65.3081C64.5249 185.526 63.8901 186.16 63.8901 186.944V186.944C63.8901 187.727 64.5249 188.362 65.3081 188.362H84.1444C84.927 188.362 85.5616 187.728 85.5624 186.945V186.945ZM84.3299 181.318C84.3299 180.535 83.6951 179.9 82.9119 179.9H76.1518C75.3686 179.9 74.7338 180.535 74.7338 181.318V181.318C74.7338 182.102 75.3686 182.736 76.1518 182.736H82.9119C83.6951 182.736 84.3299 182.102 84.3299 181.318V181.318ZM90.4443 181.193C90.4457 180.48 89.8677 179.9 89.1542 179.9V179.9C88.4417 179.9 87.8641 180.478 87.8641 181.191V181.447C87.8641 182.159 88.4416 182.736 89.154 182.736V182.736C89.8654 182.736 90.4425 182.16 90.4438 181.449L90.4443 181.193ZM96.0976 181.189C96.0976 180.477 95.5207 179.9 94.809 179.9V179.9C94.0973 179.9 93.5203 180.477 93.5203 181.189V181.448C93.5203 182.159 94.0973 182.736 94.809 182.736V182.736C95.5207 182.736 96.0976 182.159 96.0976 181.448V181.189ZM71.7658 192.579C71.7658 191.796 71.1309 191.161 70.3478 191.161H59.3584C58.5753 191.161 57.9404 191.796 57.9404 192.579V192.579C57.9404 193.363 58.5753 193.997 59.3584 193.997H70.3478C71.1309 193.997 71.7658 193.363 71.7658 192.579V192.579ZM71.7658 198.205C71.7658 197.421 71.1309 196.787 70.3478 196.787H59.3584C58.5753 196.787 57.9404 197.421 57.9404 198.205V198.205C57.9404 198.988 58.5753 199.623 59.3584 199.623H70.3478C71.1309 199.623 71.7658 198.988 71.7658 198.205V198.205Z" fill="#959799"></path> <path d="M72.6404 204.545C72.6404 205.327 72.0057 205.962 71.2227 205.962H59.3581C58.5751 205.962 57.9404 205.327 57.9404 204.545V204.545C57.9404 203.762 58.5751 203.127 59.3581 203.127H71.2227C72.0057 203.127 72.6404 203.762 72.6404 204.545V204.545ZM82.0365 204.545C82.0365 205.327 81.4017 205.962 80.6188 205.962H77.6498C76.8668 205.962 76.2321 205.327 76.2321 204.545V204.545C76.2321 203.762 76.8668 203.127 77.6498 203.127H80.6188C81.4017 203.127 82.0365 203.762 82.0365 204.545V204.545ZM96.0921 204.545C96.0921 205.327 95.4574 205.962 94.6744 205.962H86.2082C85.4253 205.962 84.7906 205.327 84.7906 204.545V204.545C84.7906 203.762 85.4253 203.127 86.2082 203.127H94.6744C95.4574 203.127 96.0921 203.762 96.0921 204.545V204.545ZM78.6805 210.173C78.6813 209.39 78.0462 208.754 77.2625 208.754H66.2718C65.4887 208.754 64.8538 209.389 64.8538 210.172V210.172C64.8538 210.955 65.4887 211.59 66.2718 211.59H77.2625C78.0451 211.59 78.6798 210.956 78.6805 210.173V210.173ZM76.2335 215.799C76.2343 215.015 75.5992 214.379 74.8155 214.379H72.3818C71.5987 214.379 70.9638 215.014 70.9638 215.797V215.797C70.9638 216.58 71.5987 217.215 72.3818 217.215H74.8155C75.5981 217.215 76.2327 216.581 76.2335 215.799V215.799ZM71.7672 221.424C71.7679 220.64 71.1328 220.004 70.3492 220.004H59.3584C58.5753 220.004 57.9404 220.639 57.9404 221.422V221.422C57.9404 222.206 58.5753 222.84 59.3584 222.84H70.3491C71.1318 222.84 71.7664 222.206 71.7672 221.424V221.424ZM85.5624 227.049C85.5631 226.265 84.928 225.63 84.1444 225.63H65.3081C64.5249 225.63 63.8901 226.264 63.8901 227.048V227.048C63.8901 227.831 64.5249 228.466 65.3081 228.466H84.1444C84.927 228.466 85.5616 227.832 85.5624 227.049V227.049ZM84.3299 221.422C84.3299 220.639 83.6951 220.004 82.9119 220.004H76.1518C75.3686 220.004 74.7338 220.639 74.7338 221.422V221.422C74.7338 222.206 75.3686 222.84 76.1518 222.84H82.9119C83.6951 222.84 84.3299 222.206 84.3299 221.422V221.422ZM90.4443 221.297C90.4457 220.584 89.8677 220.004 89.1542 220.004V220.004C88.4417 220.004 87.8641 220.582 87.8641 221.294V221.551C87.8641 222.263 88.4416 222.84 89.154 222.84V222.84C89.8654 222.84 90.4425 222.264 90.4438 221.553L90.4443 221.297ZM96.0976 221.293C96.0976 220.581 95.5207 220.004 94.809 220.004V220.004C94.0973 220.004 93.5203 220.581 93.5203 221.293V221.552C93.5203 222.263 94.0973 222.84 94.809 222.84V222.84C95.5207 222.84 96.0976 222.263 96.0976 221.552V221.293ZM71.7658 232.683C71.7658 231.9 71.1309 231.265 70.3478 231.265H59.3584C58.5753 231.265 57.9404 231.9 57.9404 232.683V232.683C57.9404 233.467 58.5753 234.101 59.3584 234.101H70.3478C71.1309 234.101 71.7658 233.467 71.7658 232.683V232.683ZM71.7658 238.309C71.7658 237.525 71.1309 236.891 70.3478 236.891H59.3584C58.5753 236.891 57.9404 237.525 57.9404 238.309V238.309C57.9404 239.092 58.5753 239.727 59.3584 239.727H70.3478C71.1309 239.727 71.7658 239.092 71.7658 238.309V238.309Z" fill="#959799"></path> <path d="M579.189 59.3304C579.189 54.8542 575.44 51.2256 570.816 51.2256H373.5C368.875 51.2256 365.127 54.8542 365.127 59.3304V72.3683H579.189V59.3304Z" fill="#6E7173"></path> <path d="M579.189 72.3683V194.354C579.189 200.488 573.961 205.461 567.513 205.461H376.803C370.355 205.461 365.127 200.488 365.127 194.354V72.3683H579.189Z" fill="#303233"></path> <path d="M286.822 355.593L288.678 385.072C288.678 385.072 197.463 386.023 186.793 385.072C176.122 384.121 154.071 385.717 157.776 361.305C159.485 350.022 180.089 257.664 189.793 242.453C196.672 231.659 224.548 221.829 243.291 217.025C243.889 216.872 244.482 216.72 245.063 216.578C251.91 214.887 257.307 213.931 259.654 213.931C268.385 213.931 298.964 205.279 310.608 207.188C311.583 207.346 312.845 207.593 314.336 207.921C315.006 208.059 315.721 208.227 316.479 208.398C334.165 212.491 374.737 224.483 379 231.999C383.85 240.557 415.871 350.851 415.871 350.851L286.822 355.593Z" fill="#3C9DF2"></path> <path d="M338.661 296.177L228.183 296.331L228.185 297.974L338.663 297.82L338.661 296.177Z" fill="white"></path> <path d="M336.197 307.673V309.317H224.813L225.065 307.673H336.197Z" fill="white"></path> <path d="M333.736 319.171V320.815H223.062L223.314 319.171H333.736Z" fill="white"></path> <path opacity="0.88" d="M238.522 336.378H220.689L223.061 320.815L223.313 319.164L224.811 309.31L225.063 307.666L229.954 275.584C228.54 289.032 228.141 299.509 228.392 307.666C228.41 308.223 228.428 308.767 228.452 309.31C228.577 312.608 228.871 315.897 229.332 319.164C229.415 319.734 229.496 320.28 229.591 320.815C232.052 335.192 237.336 336.314 238.522 336.378Z" fill="#1160A6"></path> <path opacity="0.88" d="M238.763 336.378C238.683 336.386 238.602 336.386 238.522 336.378H238.763Z" fill="#303233"></path> <path d="M315.776 230.206C311.049 238.656 301.238 244.529 290.175 245.534C288.937 245.645 287.674 245.705 286.4 245.705C278.421 245.705 269.737 243.503 260.535 239.15C256.092 237.048 250.518 233.994 246.844 229.056C244.092 225.356 242.862 220.998 243.286 217.022C243.884 216.87 244.477 216.717 245.058 216.575C244.424 220.687 245.974 225.045 248.206 228.045C251.652 232.685 256.995 235.603 261.265 237.623C271.645 242.538 281.321 244.641 290.018 243.848C300.535 242.897 309.83 237.353 314.298 229.378C318.073 222.624 317.875 214.104 314.333 207.912C315.003 208.049 315.718 208.217 316.476 208.388C319.616 214.943 319.574 223.411 315.776 230.206Z" fill="white"></path> <path d="M202.825 345.693L202.106 345.241C206.096 338.901 213.788 335.017 221.26 335.58L221.197 336.425C214.043 335.891 206.656 339.609 202.825 345.693Z" fill="#303233"></path> <path d="M215.28 331.347L198.106 331.487L198.113 332.335L215.287 332.194L215.28 331.347Z" fill="#303233"></path> <path d="M229.999 265.799C228.999 256.465 222.064 247.928 213.135 245.037L213.396 244.231C222.633 247.221 229.808 256.052 230.841 265.708L229.999 265.799Z" fill="#303233"></path> <path d="M359.016 254.552L358.17 254.485C358.789 246.779 363.948 239.486 370.995 236.341L371.342 237.114C364.563 240.143 359.609 247.151 359.016 254.552Z" fill="#303233"></path> <path d="M327.767 100.095C328.042 104.872 325.153 109.689 320.79 111.672C321.517 111.346 323.338 116.408 323.458 116.942C323.954 119.059 323.942 121.263 323.422 123.374C322.39 127.521 318.849 131.53 314.376 131.832C309.038 132.197 306.981 127.256 303.154 124.539C298.132 120.961 292.149 118.979 285.985 118.852C279.82 118.726 273.761 120.461 268.597 123.831C264.77 126.331 261.543 129.646 257.924 132.446C255.34 134.441 248.204 139.464 244.854 137.247C243.065 136.062 241.644 132.652 240.75 130.78C240.072 129.364 239.5 127.9 239.04 126.4C238.756 125.498 238.517 124.59 238.322 123.667C237.719 120.863 237.5 117.99 237.672 115.127C237.81 113.047 238.17 110.908 239.344 109.191C240.517 107.474 242.662 106.277 244.682 106.766C244.57 99.4734 248.672 92.274 255 88.6523C261.329 85.0306 269.606 85.1283 275.841 88.9055C275.693 83.0876 279.083 77.5339 283.82 74.1544C288.557 70.7749 294.482 69.3686 300.294 69.1842C306.053 69.008 312.161 70.1075 316.513 73.882C319.073 76.1402 320.699 79.2727 321.072 82.6666C321.313 85.0347 320.855 87.4111 319.491 89.3954C324.056 90.876 327.487 95.3151 327.767 100.095Z" fill="#6B19A6"></path> <path d="M325.048 141.887C324.017 145.133 322.179 148.065 319.707 150.407C319.707 150.407 319.694 151.124 319.615 152.359C319.246 158.571 317.413 177.906 308.778 184.364L309.515 214.224C309.515 214.224 312.048 230.736 292.758 235.238C273.468 239.741 261.877 231.991 252.262 220.546L253.005 161.407C253.005 161.407 243.245 162.904 238.745 153.604C234.245 144.303 238.119 134.485 245.452 137.203L245.186 135.476C244.797 132.93 244.416 130.445 244.416 130.445C244.416 130.445 253.041 129.522 258.388 124.905C260.464 123.116 262.048 120.762 262.439 117.689C262.439 117.689 278.319 116.022 279.595 104.298C279.595 104.298 301.242 120.191 315.915 105.642C315.915 105.642 318.222 110.669 318.509 117.542C318.733 122.909 318.964 130.537 318.964 130.537C318.964 130.537 323.99 128.23 325.316 131.869C326.097 134.002 326.335 137.808 325.048 141.887Z" fill="#FFBFBF"></path> <path opacity="0.6" d="M270.493 180.245C270.493 180.245 291.851 199.257 308.777 184.364L309.032 194.684C309.032 194.684 289.654 204.974 270.493 180.245Z" fill="#EB6B6B"></path> <path d="M258.12 143.055C257.054 143.468 255.291 143.903 254.224 144.313C250.647 141.019 248.048 139.111 245.45 137.204C245.06 134.66 244.299 129.695 244.299 129.695C244.299 129.695 253.039 129.523 258.387 124.907C256.293 130.846 255.67 136.906 258.12 143.055Z" fill="#6B19A6"></path> <path d="M267.927 129.818C267.927 129.818 280.751 121.889 287.774 124.882C291.267 126.371 289.541 129.413 287.864 129.686C286.187 129.958 280.66 129.823 278.031 130.59C275.402 131.356 269.421 132.673 268.698 132.446C267.974 132.219 266.75 131.045 267.927 129.818Z" fill="#303233"></path> <path d="M299.993 127.626C299.13 127.67 298.087 127.626 297.662 126.869C297.174 126.001 297.93 124.952 298.737 124.369C300.649 122.993 303.095 122.483 305.449 122.609C307.803 122.734 310.09 123.445 312.281 124.316C313.171 124.669 314.218 125.343 314.034 126.283C313.85 127.223 312.62 127.447 311.659 127.461C307.745 127.516 303.904 127.4 299.993 127.626Z" fill="#303233"></path> <path opacity="0.6" d="M294.202 152.001C294.105 152.016 294.006 151.994 293.925 151.939C293.845 151.883 293.789 151.799 293.769 151.703C293.749 151.607 293.767 151.507 293.819 151.424C293.871 151.341 293.953 151.282 294.047 151.258C296.435 150.622 298.604 149.347 300.32 147.569C300.365 147.518 300.394 147.456 300.404 147.389C300.414 147.322 300.404 147.254 300.375 147.193C298.307 142.619 296.836 137.798 295.998 132.849C295.982 132.75 296.005 132.648 296.063 132.566C296.122 132.484 296.21 132.428 296.309 132.412C296.359 132.402 296.41 132.402 296.459 132.412C296.508 132.423 296.555 132.443 296.596 132.472C296.637 132.502 296.671 132.539 296.698 132.582C296.724 132.625 296.741 132.673 296.748 132.723C297.574 137.608 299.026 142.366 301.067 146.881C301.16 147.08 301.19 147.302 301.154 147.519C301.118 147.736 301.018 147.937 300.866 148.096C299.054 149.973 296.763 151.319 294.241 151.988L294.202 152.001Z" fill="#303233"></path> <path d="M282.055 145.392C283.519 145.285 284.544 142.993 284.344 140.274C284.144 137.554 282.796 135.437 281.332 135.545C279.868 135.652 278.843 137.944 279.042 140.663C279.242 143.383 280.591 145.5 282.055 145.392Z" fill="#303233"></path> <path d="M306.386 143.318C307.854 143.215 308.89 140.922 308.699 138.195C308.508 135.468 307.163 133.341 305.695 133.444C304.227 133.547 303.192 135.84 303.383 138.567C303.573 141.294 304.918 143.421 306.386 143.318Z" fill="#303233"></path> <path d="M309.959 131.938C304.026 132.848 299.565 135.761 298.971 138.884C297.8 138.298 296.466 138.122 295.184 138.386C293.901 138.65 292.745 139.338 291.901 140.339C290.621 137.312 285.17 135.735 278.802 136.712C274.306 137.4 270.633 139.171 268.744 141.302L245.846 136.412L245.692 137.133L268.237 141.949C267.56 142.924 267.245 143.956 267.402 144.984C267.953 148.562 273.816 150.522 280.756 149.458C287.695 148.394 292.673 144.779 292.157 141.217C292.918 140.132 294.064 139.377 295.361 139.105C296.577 138.878 297.834 139.085 298.913 139.688C298.912 139.841 298.921 139.994 298.941 140.146C299.491 143.716 305.185 145.704 311.912 144.672C318.638 143.64 323.478 140.036 322.93 136.467C322.383 132.897 316.686 130.906 309.959 131.938ZM280.644 148.726C274.222 149.711 268.607 147.981 268.125 144.873C267.642 141.764 272.484 138.428 278.907 137.442C285.329 136.457 290.943 138.188 291.426 141.295C291.909 144.402 287.068 147.741 280.644 148.726ZM311.801 143.952C305.583 144.906 300.135 143.149 299.657 140.033C299.625 139.782 299.625 139.528 299.657 139.277C299.964 136.401 304.36 133.536 310.075 132.659C316.293 131.706 321.741 133.463 322.219 136.578C322.696 139.694 318.02 142.997 311.801 143.952Z" fill="white"></path> <path opacity="0.6" d="M295.651 164.014C292.826 164.014 290.01 163.242 287.683 161.659C287.628 161.626 287.581 161.581 287.543 161.529C287.506 161.476 287.48 161.417 287.466 161.354C287.452 161.291 287.451 161.225 287.464 161.162C287.476 161.099 287.501 161.039 287.537 160.985C287.573 160.932 287.62 160.886 287.674 160.852C287.729 160.817 287.789 160.794 287.853 160.783C287.916 160.772 287.982 160.775 288.044 160.79C288.107 160.805 288.166 160.833 288.217 160.872C293.18 164.243 300.503 163.681 304.89 159.588C304.982 159.502 305.105 159.456 305.231 159.461C305.357 159.465 305.476 159.519 305.562 159.612C305.648 159.704 305.693 159.826 305.689 159.952C305.685 160.078 305.63 160.197 305.538 160.283C302.9 162.745 299.267 164.014 295.651 164.014Z" fill="#303233"></path> <path opacity="0.6" d="M297.339 168.022C296.368 168.026 295.409 167.809 294.534 167.389C294.429 167.329 294.35 167.232 294.314 167.117C294.278 167.001 294.287 166.876 294.339 166.767C294.392 166.658 294.484 166.574 294.597 166.53C294.71 166.487 294.835 166.488 294.947 166.533C297.081 167.569 299.9 167.037 301.511 165.295C301.598 165.208 301.715 165.158 301.838 165.156C301.96 165.154 302.079 165.199 302.169 165.282C302.26 165.365 302.314 165.48 302.322 165.603C302.329 165.726 302.289 165.846 302.21 165.94C301.583 166.602 300.828 167.128 299.99 167.486C299.153 167.844 298.25 168.027 297.339 168.022Z" fill="#303233"></path> <path d="M425.335 385.492H258.738C256.936 385.492 255.155 385.108 253.513 384.366C251.871 383.624 250.405 382.54 249.215 381.188C248.024 379.835 247.135 378.244 246.606 376.521C246.078 374.798 245.923 372.982 246.151 371.195L259.013 270.292C259.404 267.229 260.897 264.413 263.214 262.372C265.531 260.332 268.513 259.206 271.6 259.206H438.2C440.002 259.206 441.783 259.59 443.425 260.332C445.067 261.074 446.533 262.157 447.724 263.509C448.914 264.862 449.803 266.452 450.332 268.175C450.86 269.898 451.015 271.714 450.787 273.502L437.925 374.405C437.535 377.469 436.04 380.285 433.723 382.325C431.405 384.366 428.423 385.492 425.335 385.492Z" fill="#6E7173"></path> <path d="M363.622 330.455C368.094 325.983 368.094 318.732 363.622 314.26C359.151 309.788 351.902 309.788 347.431 314.26C342.96 318.732 342.96 325.983 347.431 330.455C351.902 334.927 359.151 334.927 363.622 330.455Z" fill="white"></path> <path d="M206.337 377.315H260.956V385.492H198.523C198.475 385.491 198.429 385.472 198.395 385.438C198.362 385.404 198.343 385.358 198.343 385.31C198.343 384.26 198.55 383.22 198.951 382.25C199.353 381.28 199.942 380.399 200.684 379.656C201.427 378.914 202.308 378.325 203.278 377.923C204.248 377.522 205.288 377.315 206.337 377.315Z" fill="#6E7173"></path> <path d="M511.029 318.996C511.029 331.825 501.829 331.423 494.628 331.423C484.801 331.423 478.228 329.277 478.228 318.996C478.228 303.527 483.497 290.986 494.628 290.986C503.686 290.986 511.029 303.527 511.029 318.996Z" fill="#60BF63"></path> <path d="M485.492 300.488L484.79 301.193L487.86 304.254L488.562 303.55L485.492 300.488Z" fill="#303233"></path> <path d="M508.188 308.18L504.375 308.994L504.582 309.966L508.395 309.152L508.188 308.18Z" fill="#303233"></path> <path d="M496.917 318.683L495.929 318.793L496.302 322.147L497.291 322.037L496.917 318.683Z" fill="#303233"></path> <path d="M482.502 313.481L481.855 314.235L484.464 316.471L485.11 315.717L482.502 313.481Z" fill="#303233"></path> <path d="M497.352 292.498L496.607 295.108L497.563 295.381L498.308 292.77L497.352 292.498Z" fill="#303233"></path> <path d="M489.597 292.94L488.105 290.702L488.934 290.152L490.424 292.388L489.597 292.94Z" fill="#303233"></path> <path d="M512.984 316.37L509.965 317.375L510.279 318.317L513.298 317.312L512.984 316.37Z" fill="#303233"></path> <path d="M506.923 297.596L505.272 299.799L506.068 300.396L507.719 298.192L506.923 297.596Z" fill="#303233"></path> <path d="M477.949 303.574L477.362 304.376L480.371 306.576L480.957 305.774L477.949 303.574Z" fill="#303233"></path> <path d="M485.893 326.747L485.619 327.704L488.78 328.61L489.054 327.653L485.893 326.747Z" fill="#303233"></path> <path d="M495.276 307.904L494.741 310.038L495.705 310.28L496.24 308.146L495.276 307.904Z" fill="#303233"></path> <path d="M506.14 326.202L504.275 327.444L504.826 328.271L506.69 327.029L506.14 326.202Z" fill="#303233"></path> <path d="M486.685 291.452C486.685 295.626 482.97 299.008 478.385 299.008C473.799 299.008 471.311 295.155 471.311 290.986C471.311 286.816 473.649 281.607 478.228 281.607C482.807 281.607 486.685 287.28 486.685 291.452Z" fill="#60BF63"></path> <path d="M472.02 285.951L471.384 286.714L472.859 287.944L473.495 287.181L472.02 285.951Z" fill="#303233"></path> <path d="M478.516 281.21H477.521V283.075H478.516V281.21Z" fill="#303233"></path> <path d="M483.875 287.969L483.347 287.126L485.153 285.998L485.679 286.841L483.875 287.969Z" fill="#303233"></path> <path d="M479.693 290.562L478.711 290.722L478.994 292.468L479.976 292.309L479.693 290.562Z" fill="#303233"></path> <path d="M474.944 294.443L474.626 295.388L476.558 296.038L476.876 295.093L474.944 294.443Z" fill="#303233"></path> <path d="M524.048 330.972V369.402C524.048 373.794 522.303 378.006 519.197 381.112C516.092 384.218 511.881 385.963 507.489 385.964H483.296C481.605 385.963 479.923 385.707 478.308 385.204C474.951 384.141 472.02 382.036 469.94 379.194C467.86 376.353 466.738 372.923 466.737 369.402V330.972H524.048Z" fill="#61AEF2"></path> <path d="M524.038 343.627H466.735V346.577H524.038V343.627Z" fill="white"></path> <path d="M135.018 327.361L129.633 385.898C129.599 386.386 129.145 386.736 128.622 386.736H91.5531C91.0303 386.736 90.5901 386.386 90.5419 385.91L89.81 378.479L84.7733 327.72C84.7045 327.197 85.175 326.743 85.7666 326.725L124.667 326.43L133.991 326.359C134.6 326.368 135.071 326.822 135.018 327.361Z" fill="#F49292"></path> <path d="M135.019 327.361L129.634 385.898C129.6 386.386 129.146 386.736 128.623 386.736H91.5537C91.0309 386.736 90.5906 386.386 90.5425 385.91L89.8105 378.479C93.1399 376.579 96.7995 375.272 100.232 373.546C107.111 370.059 112.937 364.656 117.19 358.242C120.92 352.629 124.194 346.271 124.545 339.528C124.783 334.928 124.874 330.185 124.667 326.436L133.991 326.366C134.6 326.368 135.071 326.822 135.019 327.361Z" fill="#F49292"></path> <path d="M125.847 373.575C125.398 373.574 124.964 373.409 124.627 373.112C124.29 372.814 124.073 372.404 124.015 371.958C123.958 371.512 124.064 371.061 124.315 370.688C124.566 370.315 124.944 370.045 125.378 369.93C131.524 368.317 136.435 362.317 136.797 355.97C137.159 349.624 132.974 343.1 127.055 340.791C126.598 340.613 126.229 340.26 126.032 339.81C125.834 339.36 125.824 338.85 126.002 338.392C126.181 337.934 126.534 337.566 126.983 337.369C127.433 337.171 127.943 337.16 128.401 337.339C135.871 340.252 140.958 348.178 140.495 356.184C140.033 364.189 134.069 371.48 126.314 373.522C126.161 373.559 126.004 373.577 125.847 373.575Z" fill="#EB6B6B"></path> <path d="M559.819 395H48.9982C47.6726 395 46.4013 394.473 45.464 393.536C44.5266 392.598 44 391.327 44 390.001C43.9998 389.344 44.129 388.694 44.3801 388.087C44.6312 387.481 44.9993 386.929 45.4635 386.465C45.9276 386.001 46.4787 385.632 47.0852 385.381C47.6917 385.13 48.3417 385 48.9982 385H559.819C560.476 385 561.126 385.13 561.732 385.381C562.339 385.632 562.89 386.001 563.354 386.465C563.818 386.929 564.186 387.481 564.437 388.087C564.688 388.694 564.818 389.344 564.817 390.001C564.817 391.327 564.291 392.598 563.353 393.536C562.416 394.473 561.145 395 559.819 395Z" fill="#303233"></path> <path d="M383.297 92.3146C383.432 92.4133 383.584 92.4847 383.746 92.5245C383.908 92.5644 384.076 92.572 384.241 92.5469C384.406 92.5218 384.564 92.4645 384.707 92.3783C384.849 92.2921 384.974 92.1787 385.072 92.0444C385.171 91.9102 385.243 91.7579 385.283 91.5961C385.322 91.4343 385.33 91.2662 385.305 91.1015C385.28 90.9367 385.223 90.7786 385.136 90.636C385.05 90.4934 384.936 90.3692 384.802 90.2704L381.045 87.5129L384.785 84.747C384.927 84.651 385.048 84.5273 385.141 84.3834C385.233 84.2396 385.296 84.0785 385.325 83.9099C385.353 83.7412 385.348 83.5685 385.308 83.4021C385.269 83.2356 385.196 83.0789 385.094 82.9413C384.992 82.8037 384.864 82.688 384.716 82.6012C384.569 82.5144 384.405 82.4583 384.236 82.4362C384.066 82.4142 383.893 82.4266 383.729 82.4728C383.564 82.5189 383.41 82.5979 383.276 82.705L378.161 86.495C378.001 86.6131 377.871 86.7671 377.781 86.9446C377.691 87.1221 377.645 87.3182 377.645 87.5171C377.645 87.7159 377.691 87.912 377.781 88.0895C377.871 88.267 378.001 88.421 378.161 88.5391L383.297 92.3146Z" fill="white"></path> <path d="M400.494 87.4962L396.754 90.2621C396.537 90.4207 396.377 90.6436 396.295 90.8988C396.213 91.1541 396.214 91.4287 396.298 91.6834C396.382 91.938 396.544 92.1596 396.762 92.3164C396.979 92.4733 397.241 92.5573 397.509 92.5565C397.78 92.5576 398.045 92.4705 398.263 92.3083L403.391 88.5183C403.551 88.4002 403.681 88.2462 403.77 88.0687C403.86 87.8912 403.906 87.6951 403.906 87.4962C403.905 87.2974 403.858 87.1016 403.768 86.9242C403.678 86.7469 403.548 86.5928 403.389 86.4742L398.25 82.6987C397.978 82.5111 397.643 82.4368 397.317 82.4916C396.992 82.5463 396.7 82.7258 396.504 82.992C396.308 83.2582 396.224 83.5901 396.269 83.9174C396.314 84.2446 396.485 84.5415 396.745 84.745L400.494 87.4962Z" fill="white"></path> <path d="M389.013 92.4877C389.148 92.5347 389.289 92.5594 389.431 92.5607C389.694 92.5603 389.95 92.4787 390.164 92.3271C390.379 92.1755 390.541 91.9613 390.629 91.7138L393.307 84.1442C393.362 83.9871 393.387 83.8206 393.378 83.6542C393.369 83.4878 393.328 83.3247 393.256 83.1743C393.184 83.0239 393.083 82.8891 392.959 82.7776C392.835 82.6661 392.691 82.5801 392.533 82.5245C392.376 82.4689 392.21 82.4448 392.043 82.4535C391.877 82.4623 391.713 82.5037 391.563 82.5755C391.412 82.6473 391.278 82.7479 391.166 82.8718C391.054 82.9956 390.968 83.1402 390.913 83.2973L388.237 90.867C388.181 91.0243 388.157 91.1911 388.166 91.3578C388.175 91.5246 388.216 91.6879 388.288 91.8385C388.361 91.989 388.462 92.1239 388.586 92.2353C388.711 92.3467 388.856 92.4325 389.013 92.4877Z" fill="white"></path> <path opacity="0.5" d="M410.203 92.9946H416.904C417.354 92.9946 417.785 92.8161 418.103 92.4985C418.421 92.1808 418.599 91.75 418.599 91.3008C418.599 90.8516 418.421 90.4208 418.103 90.1032C417.785 89.7855 417.354 89.6071 416.904 89.6071H410.203C409.753 89.6071 409.322 89.7855 409.004 90.1032C408.686 90.4208 408.508 90.8516 408.508 91.3008C408.508 91.75 408.686 92.1808 409.004 92.4985C409.322 92.8161 409.753 92.9946 410.203 92.9946Z" fill="white"></path> <path d="M497.129 106.409H506.183C506.411 106.417 506.637 106.379 506.85 106.297C507.062 106.216 507.256 106.093 507.42 105.935C507.584 105.777 507.714 105.587 507.803 105.378C507.892 105.169 507.938 104.944 507.938 104.716C507.938 104.489 507.892 104.264 507.803 104.054C507.714 103.845 507.584 103.656 507.42 103.498C507.256 103.34 507.062 103.216 506.85 103.135C506.637 103.053 506.411 103.015 506.183 103.023H497.129C496.902 103.015 496.675 103.053 496.463 103.135C496.25 103.216 496.056 103.34 495.893 103.498C495.729 103.656 495.599 103.845 495.51 104.054C495.421 104.264 495.375 104.489 495.375 104.716C495.375 104.944 495.421 105.169 495.51 105.378C495.599 105.587 495.729 105.777 495.893 105.935C496.056 106.093 496.25 106.216 496.463 106.297C496.675 106.379 496.902 106.417 497.129 106.409Z" fill="#1785E5"></path> <path d="M515.704 106.409H538.621C538.849 106.417 539.076 106.379 539.288 106.297C539.501 106.216 539.694 106.093 539.858 105.935C540.022 105.777 540.152 105.587 540.241 105.378C540.33 105.169 540.376 104.944 540.376 104.716C540.376 104.489 540.33 104.264 540.241 104.054C540.152 103.845 540.022 103.656 539.858 103.498C539.694 103.34 539.501 103.216 539.288 103.135C539.076 103.053 538.849 103.015 538.621 103.023H515.704C515.477 103.015 515.25 103.053 515.038 103.135C514.825 103.216 514.632 103.34 514.468 103.498C514.304 103.656 514.174 103.845 514.085 104.054C513.996 104.264 513.95 104.489 513.95 104.716C513.95 104.944 513.996 105.169 514.085 105.378C514.174 105.587 514.304 105.777 514.468 105.935C514.632 106.093 514.825 106.216 515.038 106.297C515.25 106.379 515.477 106.417 515.704 106.409Z" fill="#1785E5"></path> <path d="M399.062 104.715C399.062 105.164 399.24 105.595 399.558 105.913C399.876 106.23 400.307 106.409 400.756 106.409H485.466C485.693 106.417 485.92 106.379 486.133 106.297C486.345 106.216 486.539 106.093 486.703 105.935C486.866 105.777 486.996 105.587 487.085 105.378C487.174 105.169 487.22 104.944 487.22 104.716C487.22 104.489 487.174 104.264 487.085 104.054C486.996 103.845 486.866 103.656 486.703 103.498C486.539 103.34 486.345 103.216 486.133 103.135C485.92 103.053 485.693 103.015 485.466 103.023H400.756C400.307 103.023 399.876 103.202 399.559 103.519C399.241 103.836 399.062 104.266 399.062 104.715Z" fill="white"></path> <path opacity="0.5" d="M377.743 106.409H390.683C390.911 106.417 391.137 106.379 391.35 106.297C391.562 106.216 391.756 106.093 391.92 105.935C392.084 105.777 392.214 105.587 392.303 105.378C392.392 105.169 392.437 104.944 392.437 104.716C392.437 104.489 392.392 104.264 392.303 104.054C392.214 103.845 392.084 103.656 391.92 103.498C391.756 103.34 391.562 103.216 391.35 103.135C391.137 103.053 390.911 103.015 390.683 103.023H377.743C377.304 103.039 376.888 103.224 376.583 103.54C376.278 103.855 376.107 104.277 376.107 104.716C376.107 105.155 376.278 105.577 376.583 105.893C376.888 106.208 377.304 106.393 377.743 106.409Z" fill="white"></path> <path d="M465.513 117.126C465.962 117.126 466.393 116.948 466.711 116.63C467.029 116.312 467.207 115.882 467.207 115.432C467.207 114.983 467.029 114.552 466.711 114.235C466.393 113.917 465.962 113.739 465.513 113.739H431.778C431.328 113.739 430.897 113.917 430.579 114.235C430.262 114.552 430.083 114.983 430.083 115.432C430.083 115.882 430.262 116.312 430.579 116.63C430.897 116.948 431.328 117.126 431.778 117.126H465.513Z" fill="white"></path> <path d="M400.758 117.126H424.704C425.154 117.126 425.585 116.948 425.903 116.63C426.22 116.312 426.399 115.882 426.399 115.432C426.399 114.983 426.22 114.552 425.903 114.235C425.585 113.917 425.154 113.739 424.704 113.739H400.758C400.309 113.739 399.878 113.917 399.56 114.235C399.242 114.552 399.063 114.983 399.063 115.432C399.063 115.882 399.242 116.312 399.56 116.63C399.878 116.948 400.309 117.126 400.758 117.126Z" fill="white"></path> <path opacity="0.5" d="M377.743 117.126H390.474C390.924 117.126 391.355 116.948 391.673 116.63C391.991 116.312 392.169 115.882 392.169 115.432C392.169 114.983 391.991 114.552 391.673 114.235C391.355 113.917 390.924 113.739 390.474 113.739H377.743C377.293 113.739 376.862 113.917 376.544 114.235C376.226 114.552 376.048 114.983 376.048 115.432C376.048 115.882 376.226 116.312 376.544 116.63C376.862 116.948 377.293 117.126 377.743 117.126Z" fill="white"></path> <path d="M450.266 126.16C450.266 125.711 450.087 125.28 449.769 124.962C449.452 124.645 449.021 124.466 448.571 124.466H400.589C400.14 124.466 399.709 124.645 399.391 124.962C399.073 125.28 398.895 125.711 398.895 126.16C398.895 126.609 399.073 127.04 399.391 127.358C399.709 127.675 400.14 127.854 400.589 127.854H448.571C449.021 127.854 449.452 127.675 449.769 127.358C450.087 127.04 450.266 126.609 450.266 126.16Z" fill="#1785E5"></path> <path opacity="0.5" d="M377.743 127.843H390.623C391.072 127.843 391.503 127.665 391.821 127.347C392.139 127.03 392.317 126.599 392.317 126.15C392.317 125.7 392.139 125.269 391.821 124.952C391.503 124.634 391.072 124.456 390.623 124.456H377.743C377.293 124.456 376.862 124.634 376.544 124.952C376.226 125.269 376.048 125.7 376.048 126.15C376.048 126.599 376.226 127.03 376.544 127.347C376.862 127.665 377.293 127.843 377.743 127.843Z" fill="white"></path> <path d="M433.379 138.558H482.457C482.896 138.543 483.312 138.358 483.617 138.042C483.922 137.726 484.092 137.305 484.092 136.866C484.092 136.427 483.922 136.005 483.617 135.689C483.312 135.373 482.896 135.188 482.457 135.173H433.379C433.152 135.165 432.925 135.203 432.713 135.284C432.5 135.366 432.306 135.489 432.143 135.647C431.979 135.805 431.849 135.994 431.76 136.204C431.671 136.413 431.625 136.638 431.625 136.866C431.625 137.093 431.671 137.318 431.76 137.527C431.849 137.737 431.979 137.926 432.143 138.084C432.306 138.242 432.5 138.365 432.713 138.447C432.925 138.528 433.152 138.566 433.379 138.558Z" fill="white"></path> <path d="M400.619 135.173C400.391 135.165 400.164 135.203 399.952 135.284C399.739 135.366 399.546 135.489 399.382 135.647C399.218 135.805 399.088 135.994 398.999 136.204C398.91 136.413 398.864 136.638 398.864 136.866C398.864 137.093 398.91 137.318 398.999 137.527C399.088 137.737 399.218 137.926 399.382 138.084C399.546 138.242 399.739 138.365 399.952 138.447C400.164 138.528 400.391 138.566 400.619 138.558H422.951C423.39 138.543 423.806 138.358 424.111 138.042C424.416 137.726 424.586 137.305 424.586 136.866C424.586 136.427 424.416 136.005 424.111 135.689C423.806 135.373 423.39 135.188 422.951 135.173H400.619Z" fill="white"></path> <path opacity="0.5" d="M377.743 138.558H390.474C390.913 138.543 391.329 138.358 391.634 138.042C391.939 137.726 392.11 137.305 392.11 136.866C392.11 136.427 391.939 136.005 391.634 135.689C391.329 135.373 390.913 135.188 390.474 135.173H377.743C377.304 135.188 376.888 135.373 376.583 135.689C376.278 136.005 376.107 136.427 376.107 136.866C376.107 137.305 376.278 137.726 376.583 138.042C376.888 138.358 377.304 138.543 377.743 138.558Z" fill="white"></path> <path d="M419.77 145.89H408.698C408.47 145.882 408.243 145.92 408.031 146.002C407.819 146.083 407.625 146.206 407.461 146.364C407.297 146.522 407.167 146.712 407.078 146.921C406.989 147.13 406.943 147.355 406.943 147.583C406.943 147.81 406.989 148.035 407.078 148.245C407.167 148.454 407.297 148.643 407.461 148.801C407.625 148.959 407.819 149.083 408.031 149.164C408.243 149.246 408.47 149.284 408.698 149.276H419.77C419.997 149.284 420.224 149.246 420.437 149.164C420.649 149.083 420.843 148.959 421.007 148.801C421.17 148.643 421.301 148.454 421.389 148.245C421.478 148.035 421.524 147.81 421.524 147.583C421.524 147.355 421.478 147.13 421.389 146.921C421.301 146.712 421.17 146.522 421.007 146.364C420.843 146.206 420.649 146.083 420.437 146.002C420.224 145.92 419.997 145.882 419.77 145.89Z" fill="white"></path> <path d="M473.452 124.372H462.377C462.15 124.364 461.923 124.402 461.711 124.484C461.498 124.565 461.304 124.689 461.141 124.847C460.977 125.004 460.847 125.194 460.758 125.403C460.669 125.612 460.623 125.838 460.623 126.065C460.623 126.292 460.669 126.518 460.758 126.727C460.847 126.936 460.977 127.126 461.141 127.283C461.304 127.441 461.498 127.565 461.711 127.646C461.923 127.728 462.15 127.766 462.377 127.758H473.452C473.891 127.742 474.306 127.557 474.612 127.241C474.917 126.926 475.087 126.504 475.087 126.065C475.087 125.626 474.917 125.204 474.612 124.889C474.306 124.573 473.891 124.388 473.452 124.372Z" fill="white"></path> <path d="M400.812 145.89H377.743C377.304 145.906 376.888 146.091 376.583 146.406C376.278 146.722 376.107 147.144 376.107 147.583C376.107 148.022 376.278 148.444 376.583 148.759C376.888 149.075 377.304 149.26 377.743 149.276H400.812C401.251 149.26 401.667 149.075 401.972 148.759C402.277 148.444 402.447 148.022 402.447 147.583C402.447 147.144 402.277 146.722 401.972 146.406C401.667 146.091 401.251 145.906 400.812 145.89Z" fill="white"></path> <path d="M473.436 158.301C473.436 158.523 473.479 158.743 473.564 158.949C473.649 159.154 473.774 159.34 473.931 159.497C474.089 159.654 474.275 159.779 474.48 159.864C474.686 159.949 474.906 159.993 475.128 159.993H565.469C565.696 160.001 565.923 159.963 566.136 159.881C566.348 159.8 566.542 159.677 566.706 159.519C566.869 159.361 567 159.171 567.089 158.962C567.177 158.753 567.223 158.528 567.223 158.3C567.223 158.073 567.177 157.848 567.089 157.638C567 157.429 566.869 157.24 566.706 157.082C566.542 156.924 566.348 156.8 566.136 156.719C565.923 156.637 565.696 156.599 565.469 156.607H475.128C474.906 156.607 474.685 156.651 474.48 156.736C474.274 156.822 474.088 156.946 473.931 157.104C473.773 157.261 473.649 157.448 473.564 157.653C473.479 157.859 473.435 158.079 473.436 158.301Z" fill="white"></path> <path opacity="0.5" d="M448.888 156.614C448.661 156.606 448.434 156.644 448.221 156.725C448.009 156.807 447.815 156.93 447.651 157.088C447.488 157.246 447.357 157.435 447.269 157.645C447.18 157.854 447.134 158.079 447.134 158.306C447.134 158.534 447.18 158.759 447.269 158.968C447.357 159.178 447.488 159.367 447.651 159.525C447.815 159.683 448.009 159.806 448.221 159.888C448.434 159.969 448.661 160.007 448.888 159.999H465.99C466.218 160.007 466.444 159.969 466.657 159.888C466.869 159.806 467.063 159.683 467.227 159.525C467.391 159.367 467.521 159.178 467.61 158.968C467.699 158.759 467.744 158.534 467.744 158.306C467.744 158.079 467.699 157.854 467.61 157.645C467.521 157.435 467.391 157.246 467.227 157.088C467.063 156.93 466.869 156.807 466.657 156.725C466.444 156.644 466.218 156.606 465.99 156.614H448.888Z" fill="white"></path> <path opacity="0.5" d="M565.469 167.325H543.464C543.237 167.317 543.01 167.355 542.798 167.436C542.585 167.517 542.391 167.641 542.228 167.799C542.064 167.957 541.934 168.146 541.845 168.355C541.756 168.565 541.71 168.79 541.71 169.017C541.71 169.245 541.756 169.47 541.845 169.679C541.934 169.888 542.064 170.078 542.228 170.236C542.391 170.394 542.585 170.517 542.798 170.599C543.01 170.68 543.237 170.718 543.464 170.71H565.469C565.697 170.718 565.923 170.68 566.136 170.599C566.348 170.517 566.542 170.394 566.706 170.236C566.87 170.078 567 169.888 567.089 169.679C567.178 169.47 567.223 169.245 567.223 169.017C567.223 168.79 567.178 168.565 567.089 168.355C567 168.146 566.87 167.957 566.706 167.799C566.542 167.641 566.348 167.517 566.136 167.436C565.923 167.355 565.697 167.317 565.469 167.325Z" fill="white"></path> <path d="M534.22 169.018C534.22 168.569 534.041 168.138 533.723 167.821C533.405 167.503 532.974 167.325 532.525 167.325H440.418C440.191 167.317 439.964 167.355 439.752 167.436C439.539 167.517 439.345 167.641 439.182 167.799C439.018 167.957 438.888 168.146 438.799 168.355C438.71 168.565 438.664 168.79 438.664 169.017C438.664 169.245 438.71 169.47 438.799 169.679C438.888 169.888 439.018 170.078 439.182 170.236C439.345 170.394 439.539 170.517 439.752 170.599C439.964 170.68 440.191 170.718 440.418 170.71H532.525C532.974 170.71 533.405 170.532 533.722 170.215C534.04 169.897 534.219 169.467 534.22 169.018Z" fill="white"></path> <path d="M565.469 178.042H525.569C525.341 178.034 525.115 178.072 524.902 178.153C524.69 178.235 524.496 178.358 524.332 178.516C524.168 178.674 524.038 178.863 523.949 179.073C523.86 179.282 523.814 179.507 523.814 179.734C523.814 179.962 523.86 180.187 523.949 180.396C524.038 180.606 524.168 180.795 524.332 180.953C524.496 181.111 524.69 181.234 524.902 181.316C525.115 181.397 525.341 181.435 525.569 181.427H565.469C565.696 181.435 565.923 181.397 566.136 181.316C566.348 181.234 566.542 181.111 566.706 180.953C566.869 180.795 567 180.606 567.088 180.396C567.177 180.187 567.223 179.962 567.223 179.734C567.223 179.507 567.177 179.282 567.088 179.073C567 178.863 566.869 178.674 566.706 178.516C566.542 178.358 566.348 178.235 566.136 178.153C565.923 178.072 565.696 178.034 565.469 178.042Z" fill="white"></path> <path opacity="0.5" d="M506.49 178.042C506.051 178.057 505.635 178.242 505.33 178.558C505.025 178.874 504.854 179.296 504.854 179.735C504.854 180.173 505.025 180.595 505.33 180.911C505.635 181.227 506.051 181.412 506.49 181.427H516.379C516.818 181.412 517.234 181.227 517.539 180.911C517.844 180.595 518.014 180.173 518.014 179.735C518.014 179.296 517.844 178.874 517.539 178.558C517.234 178.242 516.818 178.057 516.379 178.042H506.49Z" fill="white"></path> <path d="M565.468 188.757H486.156C485.706 188.757 485.275 188.935 484.957 189.253C484.639 189.571 484.461 190.001 484.461 190.451C484.461 190.9 484.639 191.331 484.957 191.648C485.275 191.966 485.706 192.144 486.156 192.144H565.468C565.917 192.144 566.348 191.966 566.666 191.648C566.984 191.331 567.163 190.9 567.163 190.451C567.163 190.001 566.984 189.571 566.666 189.253C566.348 188.935 565.917 188.757 565.468 188.757Z" fill="white"></path> <path d="M451.152 188.757H423.474C423.025 188.757 422.594 188.935 422.276 189.253C421.958 189.571 421.779 190.001 421.779 190.451C421.779 190.9 421.958 191.331 422.276 191.648C422.594 191.966 423.025 192.144 423.474 192.144H451.152C451.601 192.144 452.033 191.966 452.35 191.648C452.668 191.331 452.847 190.9 452.847 190.451C452.847 190.001 452.668 189.571 452.35 189.253C452.033 188.935 451.601 188.757 451.152 188.757Z" fill="white"></path> </svg> 